<mxfile host="Electron" agent="Mozilla/5.0 (Windows NT 10.0; Win64; x64) AppleWebKit/537.36 (KHTML, like Gecko) draw.io/22.1.16 Chrome/120.0.6099.109 Electron/28.1.0 Safari/537.36" modified="2024-11-29T11:11:06.379Z" version="22.1.16" etag="lQO0x0QS0Ugw_FuESjvW" type="device">
  <diagram name="back-office" id="ieuhZ0sQ4Y1j2z_Yep6L">
    <mxGraphModel dx="1982" dy="683" grid="0" gridSize="10" guides="1" tooltips="1" connect="1" arrows="1" fold="1" page="0" pageScale="1" pageWidth="827" pageHeight="1169" math="0" shadow="0">
      <root>
        <mxCell id="0" />
        <mxCell id="1" parent="0" />
        <mxCell id="SgJrQ4PgPZUKsZmOtUvy-1" value="" style="strokeWidth=1;shadow=0;dashed=0;align=center;html=1;shape=mxgraph.mockup.containers.browserWindow;rSize=0;strokeColor=#666666;strokeColor2=#008cff;strokeColor3=#c4c4c4;mainText=,;recursiveResize=0;" parent="1" vertex="1">
          <mxGeometry x="-73" y="354" width="1440" height="720" as="geometry" />
        </mxCell>
        <mxCell id="SgJrQ4PgPZUKsZmOtUvy-3" value="https://www.unina-estates25/backoffice/account.it" style="strokeWidth=1;shadow=0;dashed=0;align=center;html=1;shape=mxgraph.mockup.containers.anchor;rSize=0;fontSize=17;fontColor=#666666;align=left;" parent="SgJrQ4PgPZUKsZmOtUvy-1" vertex="1">
          <mxGeometry x="130" y="60" width="250" height="26" as="geometry" />
        </mxCell>
        <mxCell id="SgJrQ4PgPZUKsZmOtUvy-6" value="" style="verticalLabelPosition=bottom;verticalAlign=top;html=1;shape=mxgraph.basic.rect;fillColor2=none;strokeWidth=1;size=20;indent=5;" parent="SgJrQ4PgPZUKsZmOtUvy-1" vertex="1">
          <mxGeometry x="206" y="110" width="1234" height="610" as="geometry" />
        </mxCell>
        <mxCell id="SgJrQ4PgPZUKsZmOtUvy-19" value="" style="group" parent="SgJrQ4PgPZUKsZmOtUvy-1" vertex="1" connectable="0">
          <mxGeometry x="1" y="12" width="1434" height="708" as="geometry" />
        </mxCell>
        <mxCell id="SgJrQ4PgPZUKsZmOtUvy-2" value="Back-office" style="strokeWidth=1;shadow=0;dashed=0;align=center;html=1;shape=mxgraph.mockup.containers.anchor;fontSize=17;fontColor=#666666;align=left;whiteSpace=wrap;" parent="SgJrQ4PgPZUKsZmOtUvy-19" vertex="1">
          <mxGeometry x="59" width="110" height="18.63157894736842" as="geometry" />
        </mxCell>
        <mxCell id="SgJrQ4PgPZUKsZmOtUvy-48" value="" style="group" parent="SgJrQ4PgPZUKsZmOtUvy-19" vertex="1" connectable="0">
          <mxGeometry x="525" y="143.31983805668017" width="563" height="235.76113360323887" as="geometry" />
        </mxCell>
        <mxCell id="SgJrQ4PgPZUKsZmOtUvy-46" value="" style="verticalLabelPosition=bottom;verticalAlign=top;html=1;shape=mxgraph.basic.diag_round_rect;dx=6;whiteSpace=wrap;" parent="SgJrQ4PgPZUKsZmOtUvy-48" vertex="1">
          <mxGeometry width="563" height="235.76113360323887" as="geometry" />
        </mxCell>
        <mxCell id="SgJrQ4PgPZUKsZmOtUvy-27" value="Nome" style="strokeWidth=1;shadow=0;dashed=0;html=1;shape=mxgraph.mockup.forms.anchor;align=left;spacingRight=2;fontColor=#666666;" parent="SgJrQ4PgPZUKsZmOtUvy-48" vertex="1">
          <mxGeometry x="22" y="42.27935222672065" width="50" height="12.898785425101215" as="geometry" />
        </mxCell>
        <mxCell id="SgJrQ4PgPZUKsZmOtUvy-28" value="" style="strokeWidth=1;shadow=0;dashed=0;align=center;html=1;shape=mxgraph.mockup.forms.rrect;fillColor=#ffffff;rSize=0;fontColor=#666666;align=left;spacingLeft=3;strokeColor=#999999;" parent="SgJrQ4PgPZUKsZmOtUvy-48" vertex="1">
          <mxGeometry x="22" y="55.178137651821864" width="250" height="12.898785425101215" as="geometry" />
        </mxCell>
        <mxCell id="SgJrQ4PgPZUKsZmOtUvy-30" value="" style="strokeWidth=1;shadow=0;dashed=0;align=center;html=1;shape=mxgraph.mockup.forms.rrect;fillColor=#ffffff;rSize=0;fontColor=#666666;align=left;spacingLeft=3;strokeColor=#999999;" parent="SgJrQ4PgPZUKsZmOtUvy-48" vertex="1">
          <mxGeometry x="287" y="55.178137651821864" width="250" height="12.898785425101215" as="geometry" />
        </mxCell>
        <mxCell id="SgJrQ4PgPZUKsZmOtUvy-32" value="" style="strokeWidth=1;shadow=0;dashed=0;align=center;html=1;shape=mxgraph.mockup.forms.rrect;fillColor=#ffffff;rSize=0;fontColor=#666666;align=left;spacingLeft=3;strokeColor=#999999;" parent="SgJrQ4PgPZUKsZmOtUvy-48" vertex="1">
          <mxGeometry x="22" y="88.1417004048583" width="250" height="12.898785425101215" as="geometry" />
        </mxCell>
        <mxCell id="SgJrQ4PgPZUKsZmOtUvy-36" value="" style="strokeWidth=1;shadow=0;dashed=0;align=center;html=1;shape=mxgraph.mockup.forms.rrect;fillColor=#ffffff;rSize=0;fontColor=#666666;align=left;spacingLeft=3;strokeColor=#999999;" parent="SgJrQ4PgPZUKsZmOtUvy-48" vertex="1">
          <mxGeometry x="25" y="182.0161943319838" width="250" height="12.898785425101215" as="geometry" />
        </mxCell>
        <mxCell id="SgJrQ4PgPZUKsZmOtUvy-38" value="Cognome" style="strokeWidth=1;shadow=0;dashed=0;html=1;shape=mxgraph.mockup.forms.anchor;align=left;spacingRight=2;fontColor=#666666;" parent="SgJrQ4PgPZUKsZmOtUvy-48" vertex="1">
          <mxGeometry x="287" y="42.27935222672065" width="50" height="12.898785425101215" as="geometry" />
        </mxCell>
        <mxCell id="SgJrQ4PgPZUKsZmOtUvy-39" value="Email" style="strokeWidth=1;shadow=0;dashed=0;html=1;shape=mxgraph.mockup.forms.anchor;align=left;spacingRight=2;fontColor=#666666;" parent="SgJrQ4PgPZUKsZmOtUvy-48" vertex="1">
          <mxGeometry x="22" y="75.24291497975709" width="50" height="12.898785425101215" as="geometry" />
        </mxCell>
        <mxCell id="SgJrQ4PgPZUKsZmOtUvy-41" value="Nuova Password" style="strokeWidth=1;shadow=0;dashed=0;html=1;shape=mxgraph.mockup.forms.anchor;align=left;spacingRight=2;fontColor=#666666;" parent="SgJrQ4PgPZUKsZmOtUvy-48" vertex="1">
          <mxGeometry x="25" y="169.1174089068826" width="50" height="12.898785425101215" as="geometry" />
        </mxCell>
        <mxCell id="SgJrQ4PgPZUKsZmOtUvy-42" value="" style="strokeWidth=1;shadow=0;dashed=0;align=center;html=1;shape=mxgraph.mockup.forms.rrect;fillColor=#ffffff;rSize=0;fontColor=#666666;align=left;spacingLeft=3;strokeColor=#999999;" parent="SgJrQ4PgPZUKsZmOtUvy-48" vertex="1">
          <mxGeometry x="291" y="182.0161943319838" width="250" height="12.898785425101215" as="geometry" />
        </mxCell>
        <mxCell id="SgJrQ4PgPZUKsZmOtUvy-43" value="Reinserisci Password" style="strokeWidth=1;shadow=0;dashed=0;html=1;shape=mxgraph.mockup.forms.anchor;align=left;spacingRight=2;fontColor=#666666;" parent="SgJrQ4PgPZUKsZmOtUvy-48" vertex="1">
          <mxGeometry x="291" y="169.1174089068826" width="50" height="12.898785425101215" as="geometry" />
        </mxCell>
        <mxCell id="SgJrQ4PgPZUKsZmOtUvy-44" value="Salva" style="strokeWidth=1;shadow=0;dashed=0;align=center;html=1;shape=mxgraph.mockup.buttons.button;strokeColor=#666666;fontColor=#ffffff;mainText=;buttonStyle=round;fontSize=17;fontStyle=1;fillColor=#008cff;whiteSpace=wrap;" parent="SgJrQ4PgPZUKsZmOtUvy-48" vertex="1">
          <mxGeometry x="22" y="202.79757085020242" width="150" height="17.91497975708502" as="geometry" />
        </mxCell>
        <mxCell id="SgJrQ4PgPZUKsZmOtUvy-47" value="&lt;font style=&quot;font-size: 18px;&quot;&gt;&lt;b&gt;Informazioni Account&lt;/b&gt;&lt;/font&gt;" style="text;html=1;align=center;verticalAlign=middle;resizable=0;points=[];autosize=1;strokeColor=none;fillColor=none;" parent="SgJrQ4PgPZUKsZmOtUvy-48" vertex="1">
          <mxGeometry x="16" y="9.31578947368421" width="201" height="34" as="geometry" />
        </mxCell>
        <mxCell id="SgJrQ4PgPZUKsZmOtUvy-55" value="" style="group" parent="SgJrQ4PgPZUKsZmOtUvy-19" vertex="1" connectable="0">
          <mxGeometry y="70.22672064777328" width="200" height="637.7732793522267" as="geometry" />
        </mxCell>
        <mxCell id="SgJrQ4PgPZUKsZmOtUvy-4" value="" style="verticalLabelPosition=bottom;verticalAlign=top;html=1;shape=mxgraph.basic.rect;fillColor2=none;strokeWidth=0;size=20;indent=5;strokeColor=none;" parent="SgJrQ4PgPZUKsZmOtUvy-55" vertex="1">
          <mxGeometry width="200" height="637.7732793522267" as="geometry" />
        </mxCell>
        <mxCell id="SgJrQ4PgPZUKsZmOtUvy-9" value="" style="verticalLabelPosition=bottom;verticalAlign=top;html=1;shape=mxgraph.basic.rect;fillColor2=none;strokeWidth=1;size=20;indent=5;strokeColor=none;" parent="SgJrQ4PgPZUKsZmOtUvy-55" vertex="1">
          <mxGeometry y="1.4331983805668016" width="200" height="71.65991902834008" as="geometry" />
        </mxCell>
        <mxCell id="SgJrQ4PgPZUKsZmOtUvy-20" value="" style="image;html=1;image=img/lib/atlassian/Atlassian_Logo.svg;" parent="SgJrQ4PgPZUKsZmOtUvy-55" vertex="1">
          <mxGeometry x="76.5" y="4.299595141700404" width="50" height="35.11336032388664" as="geometry" />
        </mxCell>
        <mxCell id="SgJrQ4PgPZUKsZmOtUvy-21" value="&lt;b&gt;Unina Estates25&lt;br&gt;Back Office&lt;/b&gt;" style="text;html=1;align=center;verticalAlign=middle;resizable=0;points=[];autosize=1;strokeColor=none;fillColor=none;" parent="SgJrQ4PgPZUKsZmOtUvy-55" vertex="1">
          <mxGeometry x="45" y="39.412955465587046" width="111" height="41" as="geometry" />
        </mxCell>
        <mxCell id="SgJrQ4PgPZUKsZmOtUvy-22" value="" style="group;strokeColor=none;" parent="SgJrQ4PgPZUKsZmOtUvy-55" vertex="1" connectable="0">
          <mxGeometry y="108.92307692307692" width="200" height="71.65991902834008" as="geometry" />
        </mxCell>
        <mxCell id="SgJrQ4PgPZUKsZmOtUvy-12" value="" style="verticalLabelPosition=bottom;verticalAlign=top;html=1;shape=mxgraph.basic.rect;fillColor2=none;strokeWidth=1;size=20;indent=5;strokeColor=none;" parent="SgJrQ4PgPZUKsZmOtUvy-22" vertex="1">
          <mxGeometry width="200" height="71.65991902834008" as="geometry" />
        </mxCell>
        <mxCell id="SgJrQ4PgPZUKsZmOtUvy-8" value="" style="html=1;verticalLabelPosition=bottom;align=center;labelBackgroundColor=#ffffff;verticalAlign=top;strokeWidth=2;strokeColor=#0080F0;shadow=0;dashed=0;shape=mxgraph.ios7.icons.user;" parent="SgJrQ4PgPZUKsZmOtUvy-22" vertex="1">
          <mxGeometry x="82.1137033280201" y="7.165991902834008" width="28.98130705694827" height="21.497975708502025" as="geometry" />
        </mxCell>
        <mxCell id="SgJrQ4PgPZUKsZmOtUvy-15" value="&lt;b&gt;Account&lt;/b&gt;" style="text;html=1;align=center;verticalAlign=middle;resizable=0;points=[];autosize=1;strokeColor=none;fillColor=none;" parent="SgJrQ4PgPZUKsZmOtUvy-22" vertex="1">
          <mxGeometry x="65.14997826401971" y="28.663967611336034" width="66" height="26" as="geometry" />
        </mxCell>
        <mxCell id="SgJrQ4PgPZUKsZmOtUvy-23" value="" style="group;strokeColor=none;fillColor=default;fontColor=#ffffff;fillStyle=auto;" parent="SgJrQ4PgPZUKsZmOtUvy-55" vertex="1" connectable="0">
          <mxGeometry y="180.582995951417" width="200" height="71.65991902834008" as="geometry" />
        </mxCell>
        <mxCell id="SgJrQ4PgPZUKsZmOtUvy-13" value="" style="verticalLabelPosition=bottom;verticalAlign=top;html=1;shape=mxgraph.basic.rect;fillColor2=none;strokeWidth=1;size=20;indent=5;strokeColor=none;" parent="SgJrQ4PgPZUKsZmOtUvy-23" vertex="1">
          <mxGeometry width="200" height="71.65991902834008" as="geometry" />
        </mxCell>
        <mxCell id="SgJrQ4PgPZUKsZmOtUvy-7" value="" style="html=1;verticalLabelPosition=bottom;align=center;labelBackgroundColor=#ffffff;verticalAlign=top;strokeWidth=2;strokeColor=#0080F0;shadow=0;dashed=0;shape=mxgraph.ios7.icons.home;" parent="SgJrQ4PgPZUKsZmOtUvy-23" vertex="1">
          <mxGeometry x="88" y="7.165991902834008" width="24" height="18.27327935222672" as="geometry" />
        </mxCell>
        <mxCell id="SgJrQ4PgPZUKsZmOtUvy-16" value="&lt;b&gt;Inserzioni&lt;/b&gt;" style="text;html=1;align=center;verticalAlign=middle;resizable=0;points=[];autosize=1;strokeColor=none;fillColor=none;" parent="SgJrQ4PgPZUKsZmOtUvy-23" vertex="1">
          <mxGeometry x="63.5" y="25.439271255060728" width="74" height="26" as="geometry" />
        </mxCell>
        <mxCell id="SgJrQ4PgPZUKsZmOtUvy-24" value="" style="group;strokeColor=none;" parent="SgJrQ4PgPZUKsZmOtUvy-55" vertex="1" connectable="0">
          <mxGeometry y="323.90283400809716" width="200" height="71.65991902834008" as="geometry" />
        </mxCell>
        <mxCell id="SgJrQ4PgPZUKsZmOtUvy-14" value="" style="verticalLabelPosition=bottom;verticalAlign=top;html=1;shape=mxgraph.basic.rect;fillColor2=none;strokeWidth=1;size=20;indent=5;strokeColor=none;" parent="SgJrQ4PgPZUKsZmOtUvy-24" vertex="1">
          <mxGeometry width="200" height="71.65991902834008" as="geometry" />
        </mxCell>
        <mxCell id="SgJrQ4PgPZUKsZmOtUvy-17" value="" style="html=1;verticalLabelPosition=bottom;align=center;labelBackgroundColor=#ffffff;verticalAlign=top;strokeWidth=2;strokeColor=#0080F0;shadow=0;dashed=0;shape=mxgraph.ios7.icons.back;" parent="SgJrQ4PgPZUKsZmOtUvy-24" vertex="1">
          <mxGeometry x="85" y="7.165991902834008" width="30" height="18.27327935222672" as="geometry" />
        </mxCell>
        <mxCell id="SgJrQ4PgPZUKsZmOtUvy-18" value="&lt;b&gt;Logout&lt;/b&gt;" style="text;html=1;align=center;verticalAlign=middle;resizable=0;points=[];autosize=1;strokeColor=none;fillColor=none;" parent="SgJrQ4PgPZUKsZmOtUvy-24" vertex="1">
          <mxGeometry x="74.5" y="26.51417004048583" width="59" height="26" as="geometry" />
        </mxCell>
        <mxCell id="SgJrQ4PgPZUKsZmOtUvy-25" value="" style="verticalLabelPosition=bottom;verticalAlign=top;html=1;shape=mxgraph.basic.rect;fillColor2=none;strokeWidth=1;size=20;indent=5;strokeColor=none;" parent="SgJrQ4PgPZUKsZmOtUvy-55" vertex="1">
          <mxGeometry y="73.09311740890688" width="200" height="35.82995951417004" as="geometry" />
        </mxCell>
        <mxCell id="SgJrQ4PgPZUKsZmOtUvy-49" value="" style="group;strokeColor=none;" parent="SgJrQ4PgPZUKsZmOtUvy-55" vertex="1" connectable="0">
          <mxGeometry y="252.24291497975707" width="200" height="71.65991902834008" as="geometry" />
        </mxCell>
        <mxCell id="SgJrQ4PgPZUKsZmOtUvy-50" value="" style="verticalLabelPosition=bottom;verticalAlign=top;html=1;shape=mxgraph.basic.rect;fillColor2=none;strokeWidth=1;size=20;indent=5;strokeColor=none;" parent="SgJrQ4PgPZUKsZmOtUvy-49" vertex="1">
          <mxGeometry width="200" height="71.65991902834008" as="geometry" />
        </mxCell>
        <mxCell id="SgJrQ4PgPZUKsZmOtUvy-56" value="" style="group" parent="SgJrQ4PgPZUKsZmOtUvy-49" vertex="1" connectable="0">
          <mxGeometry x="35" y="7.165991902834008" width="140" height="41.97121457489878" as="geometry" />
        </mxCell>
        <mxCell id="SgJrQ4PgPZUKsZmOtUvy-52" value="&lt;b&gt;Gestione Immobiliare&lt;/b&gt;" style="text;html=1;align=center;verticalAlign=middle;resizable=0;points=[];autosize=1;strokeColor=none;fillColor=none;" parent="SgJrQ4PgPZUKsZmOtUvy-56" vertex="1">
          <mxGeometry y="23.339635627530363" width="140" height="26" as="geometry" />
        </mxCell>
        <mxCell id="SgJrQ4PgPZUKsZmOtUvy-54" value="" style="sketch=0;pointerEvents=1;shadow=0;dashed=0;html=1;strokeColor=none;fillColor=#008CFF;labelPosition=center;verticalLabelPosition=bottom;verticalAlign=top;outlineConnect=0;align=center;shape=mxgraph.office.users.distribution_group;aspect=fixed;" parent="SgJrQ4PgPZUKsZmOtUvy-56" vertex="1">
          <mxGeometry x="49" width="22.931174089068826" height="23.339635627530363" as="geometry" />
        </mxCell>
        <mxCell id="SgJrQ4PgPZUKsZmOtUvy-58" style="edgeStyle=orthogonalEdgeStyle;rounded=0;orthogonalLoop=1;jettySize=auto;html=1;" parent="1" source="SgJrQ4PgPZUKsZmOtUvy-57" target="SgJrQ4PgPZUKsZmOtUvy-50" edge="1">
          <mxGeometry relative="1" as="geometry" />
        </mxCell>
        <mxCell id="SgJrQ4PgPZUKsZmOtUvy-57" value="Questa voce è visbile solo se l&#39;account ha il ruolo di &quot;amministratore&quot; o &quot;gestore immobiliare&quot;" style="shape=note;size=20;whiteSpace=wrap;html=1;" parent="1" vertex="1">
          <mxGeometry x="-453" y="674.3" width="284" height="100" as="geometry" />
        </mxCell>
        <mxCell id="SgJrQ4PgPZUKsZmOtUvy-59" value="" style="strokeWidth=1;shadow=0;dashed=0;align=center;html=1;shape=mxgraph.mockup.containers.browserWindow;rSize=0;strokeColor=#666666;strokeColor2=#008cff;strokeColor3=#c4c4c4;mainText=,;recursiveResize=0;" parent="1" vertex="1">
          <mxGeometry x="-73" y="1152" width="1440" height="1367" as="geometry" />
        </mxCell>
        <mxCell id="SgJrQ4PgPZUKsZmOtUvy-60" value="https://www.unina-estates25/backoffice/inserzioni.it" style="strokeWidth=1;shadow=0;dashed=0;align=center;html=1;shape=mxgraph.mockup.containers.anchor;rSize=0;fontSize=17;fontColor=#666666;align=left;" parent="SgJrQ4PgPZUKsZmOtUvy-59" vertex="1">
          <mxGeometry x="130" y="60" width="250" height="26" as="geometry" />
        </mxCell>
        <mxCell id="SgJrQ4PgPZUKsZmOtUvy-61" value="" style="verticalLabelPosition=bottom;verticalAlign=top;html=1;shape=mxgraph.basic.rect;fillColor2=none;strokeWidth=1;size=20;indent=5;" parent="SgJrQ4PgPZUKsZmOtUvy-59" vertex="1">
          <mxGeometry x="206" y="110" width="1234" height="1256" as="geometry" />
        </mxCell>
        <mxCell id="SgJrQ4PgPZUKsZmOtUvy-62" value="" style="group" parent="SgJrQ4PgPZUKsZmOtUvy-59" vertex="1" connectable="0">
          <mxGeometry x="1" y="12" width="1434" height="1242" as="geometry" />
        </mxCell>
        <mxCell id="SgJrQ4PgPZUKsZmOtUvy-63" value="Back-office" style="strokeWidth=1;shadow=0;dashed=0;align=center;html=1;shape=mxgraph.mockup.containers.anchor;fontSize=17;fontColor=#666666;align=left;whiteSpace=wrap;" parent="SgJrQ4PgPZUKsZmOtUvy-62" vertex="1">
          <mxGeometry x="59" width="110" height="26" as="geometry" />
        </mxCell>
        <mxCell id="SgJrQ4PgPZUKsZmOtUvy-78" value="" style="group" parent="SgJrQ4PgPZUKsZmOtUvy-62" vertex="1" connectable="0">
          <mxGeometry y="98" width="1396" height="1144" as="geometry" />
        </mxCell>
        <mxCell id="SgJrQ4PgPZUKsZmOtUvy-79" value="" style="verticalLabelPosition=bottom;verticalAlign=top;html=1;shape=mxgraph.basic.rect;fillColor2=none;strokeWidth=0;size=20;indent=5;strokeColor=none;" parent="SgJrQ4PgPZUKsZmOtUvy-78" vertex="1">
          <mxGeometry width="200" height="890" as="geometry" />
        </mxCell>
        <mxCell id="SgJrQ4PgPZUKsZmOtUvy-80" value="" style="verticalLabelPosition=bottom;verticalAlign=top;html=1;shape=mxgraph.basic.rect;fillColor2=none;strokeWidth=1;size=20;indent=5;strokeColor=none;" parent="SgJrQ4PgPZUKsZmOtUvy-78" vertex="1">
          <mxGeometry y="2" width="200" height="100" as="geometry" />
        </mxCell>
        <mxCell id="SgJrQ4PgPZUKsZmOtUvy-81" value="" style="image;html=1;image=img/lib/atlassian/Atlassian_Logo.svg;" parent="SgJrQ4PgPZUKsZmOtUvy-78" vertex="1">
          <mxGeometry x="76.5" y="6" width="50" height="49" as="geometry" />
        </mxCell>
        <mxCell id="SgJrQ4PgPZUKsZmOtUvy-82" value="&lt;b&gt;Unina Estates25&lt;br&gt;Back Office&lt;/b&gt;" style="text;html=1;align=center;verticalAlign=middle;resizable=0;points=[];autosize=1;strokeColor=none;fillColor=none;" parent="SgJrQ4PgPZUKsZmOtUvy-78" vertex="1">
          <mxGeometry x="45" y="55" width="111" height="41" as="geometry" />
        </mxCell>
        <mxCell id="SgJrQ4PgPZUKsZmOtUvy-83" value="" style="group;strokeColor=none;" parent="SgJrQ4PgPZUKsZmOtUvy-78" vertex="1" connectable="0">
          <mxGeometry y="152" width="200" height="100" as="geometry" />
        </mxCell>
        <mxCell id="SgJrQ4PgPZUKsZmOtUvy-84" value="" style="verticalLabelPosition=bottom;verticalAlign=top;html=1;shape=mxgraph.basic.rect;fillColor2=none;strokeWidth=1;size=20;indent=5;strokeColor=none;" parent="SgJrQ4PgPZUKsZmOtUvy-83" vertex="1">
          <mxGeometry width="200" height="100" as="geometry" />
        </mxCell>
        <mxCell id="SgJrQ4PgPZUKsZmOtUvy-85" value="" style="html=1;verticalLabelPosition=bottom;align=center;labelBackgroundColor=#ffffff;verticalAlign=top;strokeWidth=2;strokeColor=#0080F0;shadow=0;dashed=0;shape=mxgraph.ios7.icons.user;" parent="SgJrQ4PgPZUKsZmOtUvy-83" vertex="1">
          <mxGeometry x="82.1137033280201" y="10" width="28.98130705694827" height="30" as="geometry" />
        </mxCell>
        <mxCell id="SgJrQ4PgPZUKsZmOtUvy-86" value="&lt;b&gt;Account&lt;/b&gt;" style="text;html=1;align=center;verticalAlign=middle;resizable=0;points=[];autosize=1;strokeColor=none;fillColor=none;" parent="SgJrQ4PgPZUKsZmOtUvy-83" vertex="1">
          <mxGeometry x="65.14997826401971" y="40" width="66" height="26" as="geometry" />
        </mxCell>
        <mxCell id="SgJrQ4PgPZUKsZmOtUvy-87" value="" style="group;strokeColor=none;fillColor=default;fontColor=#ffffff;fillStyle=auto;" parent="SgJrQ4PgPZUKsZmOtUvy-78" vertex="1" connectable="0">
          <mxGeometry y="252" width="200" height="100" as="geometry" />
        </mxCell>
        <mxCell id="SgJrQ4PgPZUKsZmOtUvy-88" value="" style="verticalLabelPosition=bottom;verticalAlign=top;html=1;shape=mxgraph.basic.rect;fillColor2=none;strokeWidth=1;size=20;indent=5;strokeColor=none;" parent="SgJrQ4PgPZUKsZmOtUvy-87" vertex="1">
          <mxGeometry width="200" height="100" as="geometry" />
        </mxCell>
        <mxCell id="SgJrQ4PgPZUKsZmOtUvy-89" value="" style="html=1;verticalLabelPosition=bottom;align=center;labelBackgroundColor=#ffffff;verticalAlign=top;strokeWidth=2;strokeColor=#0080F0;shadow=0;dashed=0;shape=mxgraph.ios7.icons.home;" parent="SgJrQ4PgPZUKsZmOtUvy-87" vertex="1">
          <mxGeometry x="88" y="10" width="24" height="25.5" as="geometry" />
        </mxCell>
        <mxCell id="SgJrQ4PgPZUKsZmOtUvy-90" value="&lt;b&gt;Inserzioni&lt;/b&gt;" style="text;html=1;align=center;verticalAlign=middle;resizable=0;points=[];autosize=1;strokeColor=none;fillColor=none;" parent="SgJrQ4PgPZUKsZmOtUvy-87" vertex="1">
          <mxGeometry x="63.5" y="35.5" width="74" height="26" as="geometry" />
        </mxCell>
        <mxCell id="SgJrQ4PgPZUKsZmOtUvy-91" value="" style="group;strokeColor=none;" parent="SgJrQ4PgPZUKsZmOtUvy-78" vertex="1" connectable="0">
          <mxGeometry y="452" width="200" height="100" as="geometry" />
        </mxCell>
        <mxCell id="SgJrQ4PgPZUKsZmOtUvy-92" value="" style="verticalLabelPosition=bottom;verticalAlign=top;html=1;shape=mxgraph.basic.rect;fillColor2=none;strokeWidth=1;size=20;indent=5;strokeColor=none;" parent="SgJrQ4PgPZUKsZmOtUvy-91" vertex="1">
          <mxGeometry width="200" height="100" as="geometry" />
        </mxCell>
        <mxCell id="SgJrQ4PgPZUKsZmOtUvy-93" value="" style="html=1;verticalLabelPosition=bottom;align=center;labelBackgroundColor=#ffffff;verticalAlign=top;strokeWidth=2;strokeColor=#0080F0;shadow=0;dashed=0;shape=mxgraph.ios7.icons.back;" parent="SgJrQ4PgPZUKsZmOtUvy-91" vertex="1">
          <mxGeometry x="85" y="10" width="30" height="25.5" as="geometry" />
        </mxCell>
        <mxCell id="SgJrQ4PgPZUKsZmOtUvy-94" value="&lt;b&gt;Logout&lt;/b&gt;" style="text;html=1;align=center;verticalAlign=middle;resizable=0;points=[];autosize=1;strokeColor=none;fillColor=none;" parent="SgJrQ4PgPZUKsZmOtUvy-91" vertex="1">
          <mxGeometry x="74.5" y="37" width="59" height="26" as="geometry" />
        </mxCell>
        <mxCell id="SgJrQ4PgPZUKsZmOtUvy-95" value="" style="verticalLabelPosition=bottom;verticalAlign=top;html=1;shape=mxgraph.basic.rect;fillColor2=none;strokeWidth=1;size=20;indent=5;strokeColor=none;" parent="SgJrQ4PgPZUKsZmOtUvy-78" vertex="1">
          <mxGeometry y="102" width="200" height="50" as="geometry" />
        </mxCell>
        <mxCell id="SgJrQ4PgPZUKsZmOtUvy-96" value="" style="group;strokeColor=none;" parent="SgJrQ4PgPZUKsZmOtUvy-78" vertex="1" connectable="0">
          <mxGeometry y="352" width="200" height="100" as="geometry" />
        </mxCell>
        <mxCell id="SgJrQ4PgPZUKsZmOtUvy-97" value="" style="verticalLabelPosition=bottom;verticalAlign=top;html=1;shape=mxgraph.basic.rect;fillColor2=none;strokeWidth=1;size=20;indent=5;strokeColor=none;" parent="SgJrQ4PgPZUKsZmOtUvy-96" vertex="1">
          <mxGeometry width="200" height="100" as="geometry" />
        </mxCell>
        <mxCell id="SgJrQ4PgPZUKsZmOtUvy-98" value="" style="group" parent="SgJrQ4PgPZUKsZmOtUvy-96" vertex="1" connectable="0">
          <mxGeometry x="35" y="10" width="140" height="58.56999999999999" as="geometry" />
        </mxCell>
        <mxCell id="SgJrQ4PgPZUKsZmOtUvy-99" value="&lt;b&gt;Gestione Immobiliare&lt;/b&gt;" style="text;html=1;align=center;verticalAlign=middle;resizable=0;points=[];autosize=1;strokeColor=none;fillColor=none;" parent="SgJrQ4PgPZUKsZmOtUvy-98" vertex="1">
          <mxGeometry y="32.57" width="140" height="26" as="geometry" />
        </mxCell>
        <mxCell id="SgJrQ4PgPZUKsZmOtUvy-100" value="" style="sketch=0;pointerEvents=1;shadow=0;dashed=0;html=1;strokeColor=none;fillColor=#008CFF;labelPosition=center;verticalLabelPosition=bottom;verticalAlign=top;outlineConnect=0;align=center;shape=mxgraph.office.users.distribution_group;aspect=fixed;" parent="SgJrQ4PgPZUKsZmOtUvy-98" vertex="1">
          <mxGeometry x="49" width="32" height="32.57" as="geometry" />
        </mxCell>
        <mxCell id="SgJrQ4PgPZUKsZmOtUvy-159" value="" style="group" parent="SgJrQ4PgPZUKsZmOtUvy-59" vertex="1" connectable="0">
          <mxGeometry x="265" y="211" width="1116" height="1034" as="geometry" />
        </mxCell>
        <mxCell id="SgJrQ4PgPZUKsZmOtUvy-113" value="" style="verticalLabelPosition=bottom;verticalAlign=top;html=1;shape=mxgraph.basic.diag_round_rect;dx=6;whiteSpace=wrap;" parent="SgJrQ4PgPZUKsZmOtUvy-159" vertex="1">
          <mxGeometry width="1116" height="1034" as="geometry" />
        </mxCell>
        <mxCell id="SgJrQ4PgPZUKsZmOtUvy-114" value="&lt;b&gt;&lt;font style=&quot;font-size: 18px;&quot;&gt;Lista Inserizioni&lt;/font&gt;&lt;/b&gt;" style="text;html=1;align=center;verticalAlign=middle;resizable=0;points=[];autosize=1;strokeColor=none;fillColor=none;" parent="SgJrQ4PgPZUKsZmOtUvy-159" vertex="1">
          <mxGeometry x="20" y="17" width="154" height="34" as="geometry" />
        </mxCell>
        <mxCell id="SgJrQ4PgPZUKsZmOtUvy-131" value="" style="group" parent="SgJrQ4PgPZUKsZmOtUvy-159" vertex="1" connectable="0">
          <mxGeometry x="20" y="69" width="500" height="457" as="geometry" />
        </mxCell>
        <mxCell id="SgJrQ4PgPZUKsZmOtUvy-124" value="" style="verticalLabelPosition=bottom;verticalAlign=top;html=1;shape=mxgraph.basic.rect;fillColor2=none;strokeWidth=1;size=20;indent=5;" parent="SgJrQ4PgPZUKsZmOtUvy-131" vertex="1">
          <mxGeometry width="500" height="457" as="geometry" />
        </mxCell>
        <mxCell id="SgJrQ4PgPZUKsZmOtUvy-115" value="" style="verticalLabelPosition=bottom;shadow=0;dashed=0;align=center;html=1;verticalAlign=top;strokeWidth=1;shape=mxgraph.mockup.graphics.simpleIcon;strokeColor=#999999;fillColor=#ffffff;" parent="SgJrQ4PgPZUKsZmOtUvy-131" vertex="1">
          <mxGeometry x="16.5" y="19" width="467" height="251" as="geometry" />
        </mxCell>
        <mxCell id="SgJrQ4PgPZUKsZmOtUvy-125" value="Modifica" style="strokeWidth=1;shadow=0;dashed=0;align=center;html=1;shape=mxgraph.mockup.buttons.button;strokeColor=#666666;fontColor=#ffffff;mainText=;buttonStyle=round;fontSize=17;fontStyle=1;fillColor=#008cff;whiteSpace=wrap;" parent="SgJrQ4PgPZUKsZmOtUvy-131" vertex="1">
          <mxGeometry x="51" y="395" width="150" height="25" as="geometry" />
        </mxCell>
        <mxCell id="SgJrQ4PgPZUKsZmOtUvy-126" value="Gestione Offerte" style="strokeWidth=1;shadow=0;dashed=0;align=center;html=1;shape=mxgraph.mockup.buttons.button;strokeColor=#666666;fontColor=#ffffff;mainText=;buttonStyle=round;fontSize=17;fontStyle=1;fillColor=#008cff;whiteSpace=wrap;" parent="SgJrQ4PgPZUKsZmOtUvy-131" vertex="1">
          <mxGeometry x="313" y="395" width="150" height="25" as="geometry" />
        </mxCell>
        <mxCell id="SgJrQ4PgPZUKsZmOtUvy-128" value="&lt;b&gt;&lt;font style=&quot;font-size: 18px;&quot;&gt;Titolo Inserzione&lt;/font&gt;&lt;/b&gt;" style="text;html=1;align=center;verticalAlign=middle;resizable=0;points=[];autosize=1;strokeColor=none;fillColor=none;" parent="SgJrQ4PgPZUKsZmOtUvy-131" vertex="1">
          <mxGeometry x="16.5" y="287" width="161" height="34" as="geometry" />
        </mxCell>
        <mxCell id="SgJrQ4PgPZUKsZmOtUvy-129" value="&lt;b&gt;&lt;font style=&quot;font-size: 18px;&quot;&gt;120.000 $&lt;/font&gt;&lt;/b&gt;" style="text;html=1;align=center;verticalAlign=middle;resizable=0;points=[];autosize=1;strokeColor=none;fillColor=none;" parent="SgJrQ4PgPZUKsZmOtUvy-131" vertex="1">
          <mxGeometry x="385.5" y="316" width="98" height="34" as="geometry" />
        </mxCell>
        <mxCell id="SgJrQ4PgPZUKsZmOtUvy-130" value="&lt;b&gt;&lt;font style=&quot;font-size: 18px;&quot;&gt;100 mt2&lt;/font&gt;&lt;/b&gt;" style="text;html=1;align=center;verticalAlign=middle;resizable=0;points=[];autosize=1;strokeColor=none;fillColor=none;" parent="SgJrQ4PgPZUKsZmOtUvy-131" vertex="1">
          <mxGeometry x="398.5" y="282" width="85" height="34" as="geometry" />
        </mxCell>
        <mxCell id="SgJrQ4PgPZUKsZmOtUvy-132" value="" style="group" parent="SgJrQ4PgPZUKsZmOtUvy-159" vertex="1" connectable="0">
          <mxGeometry x="534" y="68" width="500" height="457" as="geometry" />
        </mxCell>
        <mxCell id="SgJrQ4PgPZUKsZmOtUvy-133" value="" style="verticalLabelPosition=bottom;verticalAlign=top;html=1;shape=mxgraph.basic.rect;fillColor2=none;strokeWidth=1;size=20;indent=5;" parent="SgJrQ4PgPZUKsZmOtUvy-132" vertex="1">
          <mxGeometry width="500" height="457" as="geometry" />
        </mxCell>
        <mxCell id="SgJrQ4PgPZUKsZmOtUvy-134" value="" style="verticalLabelPosition=bottom;shadow=0;dashed=0;align=center;html=1;verticalAlign=top;strokeWidth=1;shape=mxgraph.mockup.graphics.simpleIcon;strokeColor=#999999;fillColor=#ffffff;" parent="SgJrQ4PgPZUKsZmOtUvy-132" vertex="1">
          <mxGeometry x="16.5" y="19" width="467" height="251" as="geometry" />
        </mxCell>
        <mxCell id="SgJrQ4PgPZUKsZmOtUvy-135" value="Modifica" style="strokeWidth=1;shadow=0;dashed=0;align=center;html=1;shape=mxgraph.mockup.buttons.button;strokeColor=#666666;fontColor=#ffffff;mainText=;buttonStyle=round;fontSize=17;fontStyle=1;fillColor=#008cff;whiteSpace=wrap;" parent="SgJrQ4PgPZUKsZmOtUvy-132" vertex="1">
          <mxGeometry x="51" y="395" width="150" height="25" as="geometry" />
        </mxCell>
        <mxCell id="SgJrQ4PgPZUKsZmOtUvy-136" value="Gestione Offerte" style="strokeWidth=1;shadow=0;dashed=0;align=center;html=1;shape=mxgraph.mockup.buttons.button;strokeColor=#666666;fontColor=#ffffff;mainText=;buttonStyle=round;fontSize=17;fontStyle=1;fillColor=#008cff;whiteSpace=wrap;" parent="SgJrQ4PgPZUKsZmOtUvy-132" vertex="1">
          <mxGeometry x="313" y="395" width="150" height="25" as="geometry" />
        </mxCell>
        <mxCell id="SgJrQ4PgPZUKsZmOtUvy-137" value="&lt;b&gt;&lt;font style=&quot;font-size: 18px;&quot;&gt;Titolo Inserzione&lt;/font&gt;&lt;/b&gt;" style="text;html=1;align=center;verticalAlign=middle;resizable=0;points=[];autosize=1;strokeColor=none;fillColor=none;" parent="SgJrQ4PgPZUKsZmOtUvy-132" vertex="1">
          <mxGeometry x="16.5" y="287" width="161" height="34" as="geometry" />
        </mxCell>
        <mxCell id="SgJrQ4PgPZUKsZmOtUvy-138" value="&lt;b&gt;&lt;font style=&quot;font-size: 18px;&quot;&gt;120.000 $&lt;/font&gt;&lt;/b&gt;" style="text;html=1;align=center;verticalAlign=middle;resizable=0;points=[];autosize=1;strokeColor=none;fillColor=none;" parent="SgJrQ4PgPZUKsZmOtUvy-132" vertex="1">
          <mxGeometry x="385.5" y="316" width="98" height="34" as="geometry" />
        </mxCell>
        <mxCell id="SgJrQ4PgPZUKsZmOtUvy-139" value="&lt;b&gt;&lt;font style=&quot;font-size: 18px;&quot;&gt;100 mt2&lt;/font&gt;&lt;/b&gt;" style="text;html=1;align=center;verticalAlign=middle;resizable=0;points=[];autosize=1;strokeColor=none;fillColor=none;" parent="SgJrQ4PgPZUKsZmOtUvy-132" vertex="1">
          <mxGeometry x="398.5" y="282" width="85" height="34" as="geometry" />
        </mxCell>
        <mxCell id="SgJrQ4PgPZUKsZmOtUvy-140" value="" style="verticalLabelPosition=bottom;shadow=0;dashed=0;align=center;html=1;verticalAlign=top;strokeWidth=1;shape=mxgraph.mockup.navigation.scrollBar;strokeColor=#999999;barPos=94.294;fillColor2=#99ddff;strokeColor2=none;direction=north;" parent="SgJrQ4PgPZUKsZmOtUvy-159" vertex="1">
          <mxGeometry x="1076" y="76" width="20" height="922" as="geometry" />
        </mxCell>
        <mxCell id="SgJrQ4PgPZUKsZmOtUvy-141" value="" style="group" parent="SgJrQ4PgPZUKsZmOtUvy-159" vertex="1" connectable="0">
          <mxGeometry x="24" y="553" width="500" height="457" as="geometry" />
        </mxCell>
        <mxCell id="SgJrQ4PgPZUKsZmOtUvy-142" value="" style="verticalLabelPosition=bottom;verticalAlign=top;html=1;shape=mxgraph.basic.rect;fillColor2=none;strokeWidth=1;size=20;indent=5;" parent="SgJrQ4PgPZUKsZmOtUvy-141" vertex="1">
          <mxGeometry width="500" height="457" as="geometry" />
        </mxCell>
        <mxCell id="SgJrQ4PgPZUKsZmOtUvy-143" value="" style="verticalLabelPosition=bottom;shadow=0;dashed=0;align=center;html=1;verticalAlign=top;strokeWidth=1;shape=mxgraph.mockup.graphics.simpleIcon;strokeColor=#999999;fillColor=#ffffff;" parent="SgJrQ4PgPZUKsZmOtUvy-141" vertex="1">
          <mxGeometry x="16.5" y="19" width="467" height="251" as="geometry" />
        </mxCell>
        <mxCell id="SgJrQ4PgPZUKsZmOtUvy-144" value="Modifica" style="strokeWidth=1;shadow=0;dashed=0;align=center;html=1;shape=mxgraph.mockup.buttons.button;strokeColor=#666666;fontColor=#ffffff;mainText=;buttonStyle=round;fontSize=17;fontStyle=1;fillColor=#008cff;whiteSpace=wrap;" parent="SgJrQ4PgPZUKsZmOtUvy-141" vertex="1">
          <mxGeometry x="51" y="395" width="150" height="25" as="geometry" />
        </mxCell>
        <mxCell id="SgJrQ4PgPZUKsZmOtUvy-145" value="Gestione Offerte" style="strokeWidth=1;shadow=0;dashed=0;align=center;html=1;shape=mxgraph.mockup.buttons.button;strokeColor=#666666;fontColor=#ffffff;mainText=;buttonStyle=round;fontSize=17;fontStyle=1;fillColor=#008cff;whiteSpace=wrap;" parent="SgJrQ4PgPZUKsZmOtUvy-141" vertex="1">
          <mxGeometry x="313" y="395" width="150" height="25" as="geometry" />
        </mxCell>
        <mxCell id="SgJrQ4PgPZUKsZmOtUvy-146" value="&lt;b&gt;&lt;font style=&quot;font-size: 18px;&quot;&gt;Titolo Inserzione&lt;/font&gt;&lt;/b&gt;" style="text;html=1;align=center;verticalAlign=middle;resizable=0;points=[];autosize=1;strokeColor=none;fillColor=none;" parent="SgJrQ4PgPZUKsZmOtUvy-141" vertex="1">
          <mxGeometry x="16.5" y="287" width="161" height="34" as="geometry" />
        </mxCell>
        <mxCell id="SgJrQ4PgPZUKsZmOtUvy-147" value="&lt;b&gt;&lt;font style=&quot;font-size: 18px;&quot;&gt;120.000 $&lt;/font&gt;&lt;/b&gt;" style="text;html=1;align=center;verticalAlign=middle;resizable=0;points=[];autosize=1;strokeColor=none;fillColor=none;" parent="SgJrQ4PgPZUKsZmOtUvy-141" vertex="1">
          <mxGeometry x="385.5" y="316" width="98" height="34" as="geometry" />
        </mxCell>
        <mxCell id="SgJrQ4PgPZUKsZmOtUvy-148" value="&lt;b&gt;&lt;font style=&quot;font-size: 18px;&quot;&gt;100 mt2&lt;/font&gt;&lt;/b&gt;" style="text;html=1;align=center;verticalAlign=middle;resizable=0;points=[];autosize=1;strokeColor=none;fillColor=none;" parent="SgJrQ4PgPZUKsZmOtUvy-141" vertex="1">
          <mxGeometry x="398.5" y="282" width="85" height="34" as="geometry" />
        </mxCell>
        <mxCell id="SgJrQ4PgPZUKsZmOtUvy-149" value="" style="group" parent="SgJrQ4PgPZUKsZmOtUvy-159" vertex="1" connectable="0">
          <mxGeometry x="534" y="553" width="500" height="457" as="geometry" />
        </mxCell>
        <mxCell id="SgJrQ4PgPZUKsZmOtUvy-150" value="" style="verticalLabelPosition=bottom;verticalAlign=top;html=1;shape=mxgraph.basic.rect;fillColor2=none;strokeWidth=1;size=20;indent=5;" parent="SgJrQ4PgPZUKsZmOtUvy-149" vertex="1">
          <mxGeometry width="500" height="457" as="geometry" />
        </mxCell>
        <mxCell id="SgJrQ4PgPZUKsZmOtUvy-151" value="" style="verticalLabelPosition=bottom;shadow=0;dashed=0;align=center;html=1;verticalAlign=top;strokeWidth=1;shape=mxgraph.mockup.graphics.simpleIcon;strokeColor=#999999;fillColor=#ffffff;" parent="SgJrQ4PgPZUKsZmOtUvy-149" vertex="1">
          <mxGeometry x="16.5" y="19" width="467" height="251" as="geometry" />
        </mxCell>
        <mxCell id="SgJrQ4PgPZUKsZmOtUvy-152" value="Modifica" style="strokeWidth=1;shadow=0;dashed=0;align=center;html=1;shape=mxgraph.mockup.buttons.button;strokeColor=#666666;fontColor=#ffffff;mainText=;buttonStyle=round;fontSize=17;fontStyle=1;fillColor=#008cff;whiteSpace=wrap;" parent="SgJrQ4PgPZUKsZmOtUvy-149" vertex="1">
          <mxGeometry x="51" y="395" width="150" height="25" as="geometry" />
        </mxCell>
        <mxCell id="SgJrQ4PgPZUKsZmOtUvy-153" value="Gestione Offerte" style="strokeWidth=1;shadow=0;dashed=0;align=center;html=1;shape=mxgraph.mockup.buttons.button;strokeColor=#666666;fontColor=#ffffff;mainText=;buttonStyle=round;fontSize=17;fontStyle=1;fillColor=#008cff;whiteSpace=wrap;" parent="SgJrQ4PgPZUKsZmOtUvy-149" vertex="1">
          <mxGeometry x="313" y="395" width="150" height="25" as="geometry" />
        </mxCell>
        <mxCell id="SgJrQ4PgPZUKsZmOtUvy-154" value="&lt;b&gt;&lt;font style=&quot;font-size: 18px;&quot;&gt;Titolo Inserzione&lt;/font&gt;&lt;/b&gt;" style="text;html=1;align=center;verticalAlign=middle;resizable=0;points=[];autosize=1;strokeColor=none;fillColor=none;" parent="SgJrQ4PgPZUKsZmOtUvy-149" vertex="1">
          <mxGeometry x="16.5" y="287" width="161" height="34" as="geometry" />
        </mxCell>
        <mxCell id="SgJrQ4PgPZUKsZmOtUvy-155" value="&lt;b&gt;&lt;font style=&quot;font-size: 18px;&quot;&gt;120.000 $&lt;/font&gt;&lt;/b&gt;" style="text;html=1;align=center;verticalAlign=middle;resizable=0;points=[];autosize=1;strokeColor=none;fillColor=none;" parent="SgJrQ4PgPZUKsZmOtUvy-149" vertex="1">
          <mxGeometry x="385.5" y="316" width="98" height="34" as="geometry" />
        </mxCell>
        <mxCell id="SgJrQ4PgPZUKsZmOtUvy-156" value="&lt;b&gt;&lt;font style=&quot;font-size: 18px;&quot;&gt;100 mt2&lt;/font&gt;&lt;/b&gt;" style="text;html=1;align=center;verticalAlign=middle;resizable=0;points=[];autosize=1;strokeColor=none;fillColor=none;" parent="SgJrQ4PgPZUKsZmOtUvy-149" vertex="1">
          <mxGeometry x="398.5" y="282" width="85" height="34" as="geometry" />
        </mxCell>
        <mxCell id="SgJrQ4PgPZUKsZmOtUvy-160" value="Aggiugni Inserzione" style="strokeWidth=1;shadow=0;dashed=0;align=center;html=1;shape=mxgraph.mockup.buttons.button;strokeColor=#666666;fontColor=#ffffff;mainText=;buttonStyle=round;fontSize=17;fontStyle=1;fillColor=#008cff;whiteSpace=wrap;" parent="SgJrQ4PgPZUKsZmOtUvy-59" vertex="1">
          <mxGeometry x="665" y="1295" width="262" height="25" as="geometry" />
        </mxCell>
        <mxCell id="SgJrQ4PgPZUKsZmOtUvy-226" value="" style="strokeWidth=1;shadow=0;dashed=0;align=center;html=1;shape=mxgraph.mockup.containers.browserWindow;rSize=0;strokeColor=#666666;strokeColor2=#008cff;strokeColor3=#c4c4c4;mainText=,;recursiveResize=0;" parent="1" vertex="1">
          <mxGeometry x="-73" y="2583" width="1440" height="882" as="geometry" />
        </mxCell>
        <mxCell id="SgJrQ4PgPZUKsZmOtUvy-227" value="https://www.unina-estates25/backoffice/gestione-immobiliare.it" style="strokeWidth=1;shadow=0;dashed=0;align=center;html=1;shape=mxgraph.mockup.containers.anchor;rSize=0;fontSize=17;fontColor=#666666;align=left;" parent="SgJrQ4PgPZUKsZmOtUvy-226" vertex="1">
          <mxGeometry x="130" y="60" width="250" height="26" as="geometry" />
        </mxCell>
        <mxCell id="SgJrQ4PgPZUKsZmOtUvy-228" value="" style="verticalLabelPosition=bottom;verticalAlign=top;html=1;shape=mxgraph.basic.rect;fillColor2=none;strokeWidth=1;size=20;indent=5;" parent="SgJrQ4PgPZUKsZmOtUvy-226" vertex="1">
          <mxGeometry x="206" y="110" width="1234" height="769" as="geometry" />
        </mxCell>
        <mxCell id="SgJrQ4PgPZUKsZmOtUvy-229" value="" style="group" parent="SgJrQ4PgPZUKsZmOtUvy-226" vertex="1" connectable="0">
          <mxGeometry x="1" y="12" width="1434" height="870" as="geometry" />
        </mxCell>
        <mxCell id="SgJrQ4PgPZUKsZmOtUvy-230" value="Back-office" style="strokeWidth=1;shadow=0;dashed=0;align=center;html=1;shape=mxgraph.mockup.containers.anchor;fontSize=17;fontColor=#666666;align=left;whiteSpace=wrap;" parent="SgJrQ4PgPZUKsZmOtUvy-229" vertex="1">
          <mxGeometry x="59" width="110" height="18.21256038647343" as="geometry" />
        </mxCell>
        <mxCell id="SgJrQ4PgPZUKsZmOtUvy-231" value="" style="group" parent="SgJrQ4PgPZUKsZmOtUvy-229" vertex="1" connectable="0">
          <mxGeometry y="68.64734299516908" width="1396" height="801.3526570048309" as="geometry" />
        </mxCell>
        <mxCell id="SgJrQ4PgPZUKsZmOtUvy-232" value="" style="verticalLabelPosition=bottom;verticalAlign=top;html=1;shape=mxgraph.basic.rect;fillColor2=none;strokeWidth=0;size=20;indent=5;strokeColor=none;" parent="SgJrQ4PgPZUKsZmOtUvy-231" vertex="1">
          <mxGeometry width="200" height="623.4299516908212" as="geometry" />
        </mxCell>
        <mxCell id="SgJrQ4PgPZUKsZmOtUvy-233" value="" style="verticalLabelPosition=bottom;verticalAlign=top;html=1;shape=mxgraph.basic.rect;fillColor2=none;strokeWidth=1;size=20;indent=5;strokeColor=none;" parent="SgJrQ4PgPZUKsZmOtUvy-231" vertex="1">
          <mxGeometry y="1.4009661835748792" width="200" height="70.04830917874396" as="geometry" />
        </mxCell>
        <mxCell id="SgJrQ4PgPZUKsZmOtUvy-234" value="" style="image;html=1;image=img/lib/atlassian/Atlassian_Logo.svg;" parent="SgJrQ4PgPZUKsZmOtUvy-231" vertex="1">
          <mxGeometry x="76.5" y="4.202898550724638" width="50" height="34.32367149758454" as="geometry" />
        </mxCell>
        <mxCell id="SgJrQ4PgPZUKsZmOtUvy-235" value="&lt;b&gt;Unina Estates25&lt;br&gt;Back Office&lt;/b&gt;" style="text;html=1;align=center;verticalAlign=middle;resizable=0;points=[];autosize=1;strokeColor=none;fillColor=none;" parent="SgJrQ4PgPZUKsZmOtUvy-231" vertex="1">
          <mxGeometry x="45" y="38.52657004830918" width="111" height="41" as="geometry" />
        </mxCell>
        <mxCell id="SgJrQ4PgPZUKsZmOtUvy-236" value="" style="group;strokeColor=none;" parent="SgJrQ4PgPZUKsZmOtUvy-231" vertex="1" connectable="0">
          <mxGeometry y="106.47342995169082" width="200" height="70.04830917874396" as="geometry" />
        </mxCell>
        <mxCell id="SgJrQ4PgPZUKsZmOtUvy-237" value="" style="verticalLabelPosition=bottom;verticalAlign=top;html=1;shape=mxgraph.basic.rect;fillColor2=none;strokeWidth=1;size=20;indent=5;strokeColor=none;" parent="SgJrQ4PgPZUKsZmOtUvy-236" vertex="1">
          <mxGeometry width="200" height="70.04830917874396" as="geometry" />
        </mxCell>
        <mxCell id="SgJrQ4PgPZUKsZmOtUvy-238" value="" style="html=1;verticalLabelPosition=bottom;align=center;labelBackgroundColor=#ffffff;verticalAlign=top;strokeWidth=2;strokeColor=#0080F0;shadow=0;dashed=0;shape=mxgraph.ios7.icons.user;" parent="SgJrQ4PgPZUKsZmOtUvy-236" vertex="1">
          <mxGeometry x="82.1137033280201" y="7.004830917874396" width="28.98130705694827" height="21.014492753623188" as="geometry" />
        </mxCell>
        <mxCell id="SgJrQ4PgPZUKsZmOtUvy-239" value="&lt;b&gt;Account&lt;/b&gt;" style="text;html=1;align=center;verticalAlign=middle;resizable=0;points=[];autosize=1;strokeColor=none;fillColor=none;" parent="SgJrQ4PgPZUKsZmOtUvy-236" vertex="1">
          <mxGeometry x="65.14997826401971" y="28.019323671497585" width="66" height="26" as="geometry" />
        </mxCell>
        <mxCell id="SgJrQ4PgPZUKsZmOtUvy-240" value="" style="group;strokeColor=none;fillColor=default;fontColor=#ffffff;fillStyle=auto;" parent="SgJrQ4PgPZUKsZmOtUvy-231" vertex="1" connectable="0">
          <mxGeometry y="176.52173913043478" width="200" height="70.04830917874396" as="geometry" />
        </mxCell>
        <mxCell id="SgJrQ4PgPZUKsZmOtUvy-241" value="" style="verticalLabelPosition=bottom;verticalAlign=top;html=1;shape=mxgraph.basic.rect;fillColor2=none;strokeWidth=1;size=20;indent=5;strokeColor=none;" parent="SgJrQ4PgPZUKsZmOtUvy-240" vertex="1">
          <mxGeometry width="200" height="70.04830917874396" as="geometry" />
        </mxCell>
        <mxCell id="SgJrQ4PgPZUKsZmOtUvy-242" value="" style="html=1;verticalLabelPosition=bottom;align=center;labelBackgroundColor=#ffffff;verticalAlign=top;strokeWidth=2;strokeColor=#0080F0;shadow=0;dashed=0;shape=mxgraph.ios7.icons.home;" parent="SgJrQ4PgPZUKsZmOtUvy-240" vertex="1">
          <mxGeometry x="88" y="7.004830917874396" width="24" height="17.86231884057971" as="geometry" />
        </mxCell>
        <mxCell id="SgJrQ4PgPZUKsZmOtUvy-243" value="&lt;b&gt;Inserzioni&lt;/b&gt;" style="text;html=1;align=center;verticalAlign=middle;resizable=0;points=[];autosize=1;strokeColor=none;fillColor=none;" parent="SgJrQ4PgPZUKsZmOtUvy-240" vertex="1">
          <mxGeometry x="63.5" y="24.867149758454108" width="74" height="26" as="geometry" />
        </mxCell>
        <mxCell id="SgJrQ4PgPZUKsZmOtUvy-244" value="" style="group;strokeColor=none;" parent="SgJrQ4PgPZUKsZmOtUvy-231" vertex="1" connectable="0">
          <mxGeometry y="316.6183574879227" width="200" height="70.04830917874396" as="geometry" />
        </mxCell>
        <mxCell id="SgJrQ4PgPZUKsZmOtUvy-245" value="" style="verticalLabelPosition=bottom;verticalAlign=top;html=1;shape=mxgraph.basic.rect;fillColor2=none;strokeWidth=1;size=20;indent=5;strokeColor=none;" parent="SgJrQ4PgPZUKsZmOtUvy-244" vertex="1">
          <mxGeometry width="200" height="70.04830917874396" as="geometry" />
        </mxCell>
        <mxCell id="SgJrQ4PgPZUKsZmOtUvy-246" value="" style="html=1;verticalLabelPosition=bottom;align=center;labelBackgroundColor=#ffffff;verticalAlign=top;strokeWidth=2;strokeColor=#0080F0;shadow=0;dashed=0;shape=mxgraph.ios7.icons.back;" parent="SgJrQ4PgPZUKsZmOtUvy-244" vertex="1">
          <mxGeometry x="85" y="7.004830917874396" width="30" height="17.86231884057971" as="geometry" />
        </mxCell>
        <mxCell id="SgJrQ4PgPZUKsZmOtUvy-247" value="&lt;b&gt;Logout&lt;/b&gt;" style="text;html=1;align=center;verticalAlign=middle;resizable=0;points=[];autosize=1;strokeColor=none;fillColor=none;" parent="SgJrQ4PgPZUKsZmOtUvy-244" vertex="1">
          <mxGeometry x="74.5" y="25.917874396135264" width="59" height="26" as="geometry" />
        </mxCell>
        <mxCell id="SgJrQ4PgPZUKsZmOtUvy-248" value="" style="verticalLabelPosition=bottom;verticalAlign=top;html=1;shape=mxgraph.basic.rect;fillColor2=none;strokeWidth=1;size=20;indent=5;strokeColor=none;" parent="SgJrQ4PgPZUKsZmOtUvy-231" vertex="1">
          <mxGeometry y="71.44927536231884" width="200" height="35.02415458937198" as="geometry" />
        </mxCell>
        <mxCell id="SgJrQ4PgPZUKsZmOtUvy-249" value="" style="group;strokeColor=none;" parent="SgJrQ4PgPZUKsZmOtUvy-231" vertex="1" connectable="0">
          <mxGeometry y="246.57004830917873" width="200" height="70.04830917874396" as="geometry" />
        </mxCell>
        <mxCell id="SgJrQ4PgPZUKsZmOtUvy-250" value="" style="verticalLabelPosition=bottom;verticalAlign=top;html=1;shape=mxgraph.basic.rect;fillColor2=none;strokeWidth=1;size=20;indent=5;strokeColor=none;" parent="SgJrQ4PgPZUKsZmOtUvy-249" vertex="1">
          <mxGeometry width="200" height="70.04830917874396" as="geometry" />
        </mxCell>
        <mxCell id="SgJrQ4PgPZUKsZmOtUvy-251" value="" style="group" parent="SgJrQ4PgPZUKsZmOtUvy-249" vertex="1" connectable="0">
          <mxGeometry x="35" y="7.004830917874396" width="140" height="41.027294685990334" as="geometry" />
        </mxCell>
        <mxCell id="SgJrQ4PgPZUKsZmOtUvy-252" value="&lt;b&gt;Gestione Immobiliare&lt;/b&gt;" style="text;html=1;align=center;verticalAlign=middle;resizable=0;points=[];autosize=1;strokeColor=none;fillColor=none;" parent="SgJrQ4PgPZUKsZmOtUvy-251" vertex="1">
          <mxGeometry y="22.814734299516907" width="140" height="26" as="geometry" />
        </mxCell>
        <mxCell id="SgJrQ4PgPZUKsZmOtUvy-253" value="" style="sketch=0;pointerEvents=1;shadow=0;dashed=0;html=1;strokeColor=none;fillColor=#008CFF;labelPosition=center;verticalLabelPosition=bottom;verticalAlign=top;outlineConnect=0;align=center;shape=mxgraph.office.users.distribution_group;aspect=fixed;" parent="SgJrQ4PgPZUKsZmOtUvy-251" vertex="1">
          <mxGeometry x="49" width="22.415458937198068" height="22.814734299516907" as="geometry" />
        </mxCell>
        <mxCell id="SgJrQ4PgPZUKsZmOtUvy-355" value="" style="group" parent="SgJrQ4PgPZUKsZmOtUvy-231" vertex="1" connectable="0">
          <mxGeometry x="220" y="84.7584541062802" width="1156" height="289.2995169082126" as="geometry" />
        </mxCell>
        <mxCell id="SgJrQ4PgPZUKsZmOtUvy-352" value="" style="verticalLabelPosition=bottom;verticalAlign=top;html=1;shape=mxgraph.basic.diag_round_rect;dx=6;whiteSpace=wrap;" parent="SgJrQ4PgPZUKsZmOtUvy-355" vertex="1">
          <mxGeometry width="1156" height="289.2995169082126" as="geometry" />
        </mxCell>
        <mxCell id="SgJrQ4PgPZUKsZmOtUvy-351" value="" style="group" parent="SgJrQ4PgPZUKsZmOtUvy-355" vertex="1" connectable="0">
          <mxGeometry x="47" y="66.54589371980677" width="1050" height="168.1159420289855" as="geometry" />
        </mxCell>
        <mxCell id="SgJrQ4PgPZUKsZmOtUvy-291" value="" style="shape=table;startSize=0;container=1;collapsible=0;childLayout=tableLayout;" parent="SgJrQ4PgPZUKsZmOtUvy-351" vertex="1">
          <mxGeometry width="1050" height="168.1159420289855" as="geometry" />
        </mxCell>
        <mxCell id="SgJrQ4PgPZUKsZmOtUvy-292" value="" style="shape=tableRow;horizontal=0;startSize=0;swimlaneHead=0;swimlaneBody=0;strokeColor=inherit;top=0;left=0;bottom=0;right=0;collapsible=0;dropTarget=0;fillColor=none;points=[[0,0.5],[1,0.5]];portConstraint=eastwest;" parent="SgJrQ4PgPZUKsZmOtUvy-291" vertex="1">
          <mxGeometry width="1050" height="28" as="geometry" />
        </mxCell>
        <mxCell id="SgJrQ4PgPZUKsZmOtUvy-293" value="Sede" style="shape=partialRectangle;html=1;whiteSpace=wrap;connectable=0;strokeColor=inherit;overflow=hidden;fillColor=none;top=0;left=0;bottom=0;right=0;pointerEvents=1;align=center;fontStyle=1;fontSize=15;" parent="SgJrQ4PgPZUKsZmOtUvy-292" vertex="1">
          <mxGeometry width="150" height="28" as="geometry">
            <mxRectangle width="150" height="28" as="alternateBounds" />
          </mxGeometry>
        </mxCell>
        <mxCell id="SgJrQ4PgPZUKsZmOtUvy-294" value="Nome" style="shape=partialRectangle;html=1;whiteSpace=wrap;connectable=0;strokeColor=inherit;overflow=hidden;fillColor=none;top=0;left=0;bottom=0;right=0;pointerEvents=1;align=center;fontStyle=1;fontSize=15;" parent="SgJrQ4PgPZUKsZmOtUvy-292" vertex="1">
          <mxGeometry x="150" width="150" height="28" as="geometry">
            <mxRectangle width="150" height="28" as="alternateBounds" />
          </mxGeometry>
        </mxCell>
        <mxCell id="SgJrQ4PgPZUKsZmOtUvy-295" value="Email" style="shape=partialRectangle;html=1;whiteSpace=wrap;connectable=0;strokeColor=inherit;overflow=hidden;fillColor=none;top=0;left=0;bottom=0;right=0;pointerEvents=1;align=center;fontStyle=1;fontSize=15;" parent="SgJrQ4PgPZUKsZmOtUvy-292" vertex="1">
          <mxGeometry x="300" width="150" height="28" as="geometry">
            <mxRectangle width="150" height="28" as="alternateBounds" />
          </mxGeometry>
        </mxCell>
        <mxCell id="SgJrQ4PgPZUKsZmOtUvy-296" value="Ruolo" style="shape=partialRectangle;html=1;whiteSpace=wrap;connectable=0;strokeColor=inherit;overflow=hidden;fillColor=none;top=0;left=0;bottom=0;right=0;pointerEvents=1;align=center;fontStyle=1;fontSize=15;" parent="SgJrQ4PgPZUKsZmOtUvy-292" vertex="1">
          <mxGeometry x="450" width="150" height="28" as="geometry">
            <mxRectangle width="150" height="28" as="alternateBounds" />
          </mxGeometry>
        </mxCell>
        <mxCell id="SgJrQ4PgPZUKsZmOtUvy-297" value="Vendite" style="shape=partialRectangle;html=1;whiteSpace=wrap;connectable=0;strokeColor=inherit;overflow=hidden;fillColor=none;top=0;left=0;bottom=0;right=0;pointerEvents=1;align=center;fontStyle=1;fontSize=15;" parent="SgJrQ4PgPZUKsZmOtUvy-292" vertex="1">
          <mxGeometry x="600" width="150" height="28" as="geometry">
            <mxRectangle width="150" height="28" as="alternateBounds" />
          </mxGeometry>
        </mxCell>
        <mxCell id="SgJrQ4PgPZUKsZmOtUvy-298" value="" style="shape=partialRectangle;html=1;whiteSpace=wrap;connectable=0;strokeColor=inherit;overflow=hidden;fillColor=none;top=0;left=0;bottom=0;right=0;pointerEvents=1;" parent="SgJrQ4PgPZUKsZmOtUvy-292" vertex="1">
          <mxGeometry x="750" width="150" height="28" as="geometry">
            <mxRectangle width="150" height="28" as="alternateBounds" />
          </mxGeometry>
        </mxCell>
        <mxCell id="SgJrQ4PgPZUKsZmOtUvy-299" value="" style="shape=partialRectangle;html=1;whiteSpace=wrap;connectable=0;strokeColor=inherit;overflow=hidden;fillColor=none;top=0;left=0;bottom=0;right=0;pointerEvents=1;" parent="SgJrQ4PgPZUKsZmOtUvy-292" vertex="1">
          <mxGeometry x="900" width="150" height="28" as="geometry">
            <mxRectangle width="150" height="28" as="alternateBounds" />
          </mxGeometry>
        </mxCell>
        <mxCell id="SgJrQ4PgPZUKsZmOtUvy-300" value="" style="shape=tableRow;horizontal=0;startSize=0;swimlaneHead=0;swimlaneBody=0;strokeColor=inherit;top=0;left=0;bottom=0;right=0;collapsible=0;dropTarget=0;fillColor=none;points=[[0,0.5],[1,0.5]];portConstraint=eastwest;" parent="SgJrQ4PgPZUKsZmOtUvy-291" vertex="1">
          <mxGeometry y="28" width="1050" height="28" as="geometry" />
        </mxCell>
        <mxCell id="SgJrQ4PgPZUKsZmOtUvy-301" value="" style="shape=partialRectangle;html=1;whiteSpace=wrap;connectable=0;strokeColor=inherit;overflow=hidden;fillColor=none;top=0;left=0;bottom=0;right=0;pointerEvents=1;" parent="SgJrQ4PgPZUKsZmOtUvy-300" vertex="1">
          <mxGeometry width="150" height="28" as="geometry">
            <mxRectangle width="150" height="28" as="alternateBounds" />
          </mxGeometry>
        </mxCell>
        <mxCell id="SgJrQ4PgPZUKsZmOtUvy-302" value="" style="shape=partialRectangle;html=1;whiteSpace=wrap;connectable=0;strokeColor=inherit;overflow=hidden;fillColor=none;top=0;left=0;bottom=0;right=0;pointerEvents=1;" parent="SgJrQ4PgPZUKsZmOtUvy-300" vertex="1">
          <mxGeometry x="150" width="150" height="28" as="geometry">
            <mxRectangle width="150" height="28" as="alternateBounds" />
          </mxGeometry>
        </mxCell>
        <mxCell id="SgJrQ4PgPZUKsZmOtUvy-303" value="" style="shape=partialRectangle;html=1;whiteSpace=wrap;connectable=0;strokeColor=inherit;overflow=hidden;fillColor=none;top=0;left=0;bottom=0;right=0;pointerEvents=1;" parent="SgJrQ4PgPZUKsZmOtUvy-300" vertex="1">
          <mxGeometry x="300" width="150" height="28" as="geometry">
            <mxRectangle width="150" height="28" as="alternateBounds" />
          </mxGeometry>
        </mxCell>
        <mxCell id="SgJrQ4PgPZUKsZmOtUvy-304" value="" style="shape=partialRectangle;html=1;whiteSpace=wrap;connectable=0;strokeColor=inherit;overflow=hidden;fillColor=none;top=0;left=0;bottom=0;right=0;pointerEvents=1;" parent="SgJrQ4PgPZUKsZmOtUvy-300" vertex="1">
          <mxGeometry x="450" width="150" height="28" as="geometry">
            <mxRectangle width="150" height="28" as="alternateBounds" />
          </mxGeometry>
        </mxCell>
        <mxCell id="SgJrQ4PgPZUKsZmOtUvy-305" value="" style="shape=partialRectangle;html=1;whiteSpace=wrap;connectable=0;strokeColor=inherit;overflow=hidden;fillColor=none;top=0;left=0;bottom=0;right=0;pointerEvents=1;" parent="SgJrQ4PgPZUKsZmOtUvy-300" vertex="1">
          <mxGeometry x="600" width="150" height="28" as="geometry">
            <mxRectangle width="150" height="28" as="alternateBounds" />
          </mxGeometry>
        </mxCell>
        <mxCell id="SgJrQ4PgPZUKsZmOtUvy-306" value="" style="shape=partialRectangle;html=1;whiteSpace=wrap;connectable=0;strokeColor=inherit;overflow=hidden;fillColor=none;top=0;left=0;bottom=0;right=0;pointerEvents=1;" parent="SgJrQ4PgPZUKsZmOtUvy-300" vertex="1">
          <mxGeometry x="750" width="150" height="28" as="geometry">
            <mxRectangle width="150" height="28" as="alternateBounds" />
          </mxGeometry>
        </mxCell>
        <mxCell id="SgJrQ4PgPZUKsZmOtUvy-307" value="" style="shape=partialRectangle;html=1;whiteSpace=wrap;connectable=0;strokeColor=inherit;overflow=hidden;fillColor=none;top=0;left=0;bottom=0;right=0;pointerEvents=1;" parent="SgJrQ4PgPZUKsZmOtUvy-300" vertex="1">
          <mxGeometry x="900" width="150" height="28" as="geometry">
            <mxRectangle width="150" height="28" as="alternateBounds" />
          </mxGeometry>
        </mxCell>
        <mxCell id="SgJrQ4PgPZUKsZmOtUvy-308" value="" style="shape=tableRow;horizontal=0;startSize=0;swimlaneHead=0;swimlaneBody=0;strokeColor=inherit;top=0;left=0;bottom=0;right=0;collapsible=0;dropTarget=0;fillColor=none;points=[[0,0.5],[1,0.5]];portConstraint=eastwest;" parent="SgJrQ4PgPZUKsZmOtUvy-291" vertex="1">
          <mxGeometry y="56" width="1050" height="28" as="geometry" />
        </mxCell>
        <mxCell id="SgJrQ4PgPZUKsZmOtUvy-309" value="" style="shape=partialRectangle;html=1;whiteSpace=wrap;connectable=0;strokeColor=inherit;overflow=hidden;fillColor=none;top=0;left=0;bottom=0;right=0;pointerEvents=1;" parent="SgJrQ4PgPZUKsZmOtUvy-308" vertex="1">
          <mxGeometry width="150" height="28" as="geometry">
            <mxRectangle width="150" height="28" as="alternateBounds" />
          </mxGeometry>
        </mxCell>
        <mxCell id="SgJrQ4PgPZUKsZmOtUvy-310" value="" style="shape=partialRectangle;html=1;whiteSpace=wrap;connectable=0;strokeColor=inherit;overflow=hidden;fillColor=none;top=0;left=0;bottom=0;right=0;pointerEvents=1;" parent="SgJrQ4PgPZUKsZmOtUvy-308" vertex="1">
          <mxGeometry x="150" width="150" height="28" as="geometry">
            <mxRectangle width="150" height="28" as="alternateBounds" />
          </mxGeometry>
        </mxCell>
        <mxCell id="SgJrQ4PgPZUKsZmOtUvy-311" value="" style="shape=partialRectangle;html=1;whiteSpace=wrap;connectable=0;strokeColor=inherit;overflow=hidden;fillColor=none;top=0;left=0;bottom=0;right=0;pointerEvents=1;" parent="SgJrQ4PgPZUKsZmOtUvy-308" vertex="1">
          <mxGeometry x="300" width="150" height="28" as="geometry">
            <mxRectangle width="150" height="28" as="alternateBounds" />
          </mxGeometry>
        </mxCell>
        <mxCell id="SgJrQ4PgPZUKsZmOtUvy-312" value="" style="shape=partialRectangle;html=1;whiteSpace=wrap;connectable=0;strokeColor=inherit;overflow=hidden;fillColor=none;top=0;left=0;bottom=0;right=0;pointerEvents=1;" parent="SgJrQ4PgPZUKsZmOtUvy-308" vertex="1">
          <mxGeometry x="450" width="150" height="28" as="geometry">
            <mxRectangle width="150" height="28" as="alternateBounds" />
          </mxGeometry>
        </mxCell>
        <mxCell id="SgJrQ4PgPZUKsZmOtUvy-313" value="" style="shape=partialRectangle;html=1;whiteSpace=wrap;connectable=0;strokeColor=inherit;overflow=hidden;fillColor=none;top=0;left=0;bottom=0;right=0;pointerEvents=1;" parent="SgJrQ4PgPZUKsZmOtUvy-308" vertex="1">
          <mxGeometry x="600" width="150" height="28" as="geometry">
            <mxRectangle width="150" height="28" as="alternateBounds" />
          </mxGeometry>
        </mxCell>
        <mxCell id="SgJrQ4PgPZUKsZmOtUvy-314" value="" style="shape=partialRectangle;html=1;whiteSpace=wrap;connectable=0;strokeColor=inherit;overflow=hidden;fillColor=none;top=0;left=0;bottom=0;right=0;pointerEvents=1;" parent="SgJrQ4PgPZUKsZmOtUvy-308" vertex="1">
          <mxGeometry x="750" width="150" height="28" as="geometry">
            <mxRectangle width="150" height="28" as="alternateBounds" />
          </mxGeometry>
        </mxCell>
        <mxCell id="SgJrQ4PgPZUKsZmOtUvy-315" value="" style="shape=partialRectangle;html=1;whiteSpace=wrap;connectable=0;strokeColor=inherit;overflow=hidden;fillColor=none;top=0;left=0;bottom=0;right=0;pointerEvents=1;" parent="SgJrQ4PgPZUKsZmOtUvy-308" vertex="1">
          <mxGeometry x="900" width="150" height="28" as="geometry">
            <mxRectangle width="150" height="28" as="alternateBounds" />
          </mxGeometry>
        </mxCell>
        <mxCell id="SgJrQ4PgPZUKsZmOtUvy-316" value="" style="shape=tableRow;horizontal=0;startSize=0;swimlaneHead=0;swimlaneBody=0;strokeColor=inherit;top=0;left=0;bottom=0;right=0;collapsible=0;dropTarget=0;fillColor=none;points=[[0,0.5],[1,0.5]];portConstraint=eastwest;" parent="SgJrQ4PgPZUKsZmOtUvy-291" vertex="1">
          <mxGeometry y="84" width="1050" height="28" as="geometry" />
        </mxCell>
        <mxCell id="SgJrQ4PgPZUKsZmOtUvy-317" value="" style="shape=partialRectangle;html=1;whiteSpace=wrap;connectable=0;strokeColor=inherit;overflow=hidden;fillColor=none;top=0;left=0;bottom=0;right=0;pointerEvents=1;" parent="SgJrQ4PgPZUKsZmOtUvy-316" vertex="1">
          <mxGeometry width="150" height="28" as="geometry">
            <mxRectangle width="150" height="28" as="alternateBounds" />
          </mxGeometry>
        </mxCell>
        <mxCell id="SgJrQ4PgPZUKsZmOtUvy-318" value="" style="shape=partialRectangle;html=1;whiteSpace=wrap;connectable=0;strokeColor=inherit;overflow=hidden;fillColor=none;top=0;left=0;bottom=0;right=0;pointerEvents=1;" parent="SgJrQ4PgPZUKsZmOtUvy-316" vertex="1">
          <mxGeometry x="150" width="150" height="28" as="geometry">
            <mxRectangle width="150" height="28" as="alternateBounds" />
          </mxGeometry>
        </mxCell>
        <mxCell id="SgJrQ4PgPZUKsZmOtUvy-319" value="" style="shape=partialRectangle;html=1;whiteSpace=wrap;connectable=0;strokeColor=inherit;overflow=hidden;fillColor=none;top=0;left=0;bottom=0;right=0;pointerEvents=1;" parent="SgJrQ4PgPZUKsZmOtUvy-316" vertex="1">
          <mxGeometry x="300" width="150" height="28" as="geometry">
            <mxRectangle width="150" height="28" as="alternateBounds" />
          </mxGeometry>
        </mxCell>
        <mxCell id="SgJrQ4PgPZUKsZmOtUvy-320" value="" style="shape=partialRectangle;html=1;whiteSpace=wrap;connectable=0;strokeColor=inherit;overflow=hidden;fillColor=none;top=0;left=0;bottom=0;right=0;pointerEvents=1;" parent="SgJrQ4PgPZUKsZmOtUvy-316" vertex="1">
          <mxGeometry x="450" width="150" height="28" as="geometry">
            <mxRectangle width="150" height="28" as="alternateBounds" />
          </mxGeometry>
        </mxCell>
        <mxCell id="SgJrQ4PgPZUKsZmOtUvy-321" value="" style="shape=partialRectangle;html=1;whiteSpace=wrap;connectable=0;strokeColor=inherit;overflow=hidden;fillColor=none;top=0;left=0;bottom=0;right=0;pointerEvents=1;" parent="SgJrQ4PgPZUKsZmOtUvy-316" vertex="1">
          <mxGeometry x="600" width="150" height="28" as="geometry">
            <mxRectangle width="150" height="28" as="alternateBounds" />
          </mxGeometry>
        </mxCell>
        <mxCell id="SgJrQ4PgPZUKsZmOtUvy-322" value="" style="shape=partialRectangle;html=1;whiteSpace=wrap;connectable=0;strokeColor=inherit;overflow=hidden;fillColor=none;top=0;left=0;bottom=0;right=0;pointerEvents=1;" parent="SgJrQ4PgPZUKsZmOtUvy-316" vertex="1">
          <mxGeometry x="750" width="150" height="28" as="geometry">
            <mxRectangle width="150" height="28" as="alternateBounds" />
          </mxGeometry>
        </mxCell>
        <mxCell id="SgJrQ4PgPZUKsZmOtUvy-323" value="" style="shape=partialRectangle;html=1;whiteSpace=wrap;connectable=0;strokeColor=inherit;overflow=hidden;fillColor=none;top=0;left=0;bottom=0;right=0;pointerEvents=1;" parent="SgJrQ4PgPZUKsZmOtUvy-316" vertex="1">
          <mxGeometry x="900" width="150" height="28" as="geometry">
            <mxRectangle width="150" height="28" as="alternateBounds" />
          </mxGeometry>
        </mxCell>
        <mxCell id="SgJrQ4PgPZUKsZmOtUvy-324" value="" style="shape=tableRow;horizontal=0;startSize=0;swimlaneHead=0;swimlaneBody=0;strokeColor=inherit;top=0;left=0;bottom=0;right=0;collapsible=0;dropTarget=0;fillColor=none;points=[[0,0.5],[1,0.5]];portConstraint=eastwest;" parent="SgJrQ4PgPZUKsZmOtUvy-291" vertex="1">
          <mxGeometry y="112" width="1050" height="28" as="geometry" />
        </mxCell>
        <mxCell id="SgJrQ4PgPZUKsZmOtUvy-325" value="" style="shape=partialRectangle;html=1;whiteSpace=wrap;connectable=0;strokeColor=inherit;overflow=hidden;fillColor=none;top=0;left=0;bottom=0;right=0;pointerEvents=1;" parent="SgJrQ4PgPZUKsZmOtUvy-324" vertex="1">
          <mxGeometry width="150" height="28" as="geometry">
            <mxRectangle width="150" height="28" as="alternateBounds" />
          </mxGeometry>
        </mxCell>
        <mxCell id="SgJrQ4PgPZUKsZmOtUvy-326" value="" style="shape=partialRectangle;html=1;whiteSpace=wrap;connectable=0;strokeColor=inherit;overflow=hidden;fillColor=none;top=0;left=0;bottom=0;right=0;pointerEvents=1;" parent="SgJrQ4PgPZUKsZmOtUvy-324" vertex="1">
          <mxGeometry x="150" width="150" height="28" as="geometry">
            <mxRectangle width="150" height="28" as="alternateBounds" />
          </mxGeometry>
        </mxCell>
        <mxCell id="SgJrQ4PgPZUKsZmOtUvy-327" value="" style="shape=partialRectangle;html=1;whiteSpace=wrap;connectable=0;strokeColor=inherit;overflow=hidden;fillColor=none;top=0;left=0;bottom=0;right=0;pointerEvents=1;" parent="SgJrQ4PgPZUKsZmOtUvy-324" vertex="1">
          <mxGeometry x="300" width="150" height="28" as="geometry">
            <mxRectangle width="150" height="28" as="alternateBounds" />
          </mxGeometry>
        </mxCell>
        <mxCell id="SgJrQ4PgPZUKsZmOtUvy-328" value="" style="shape=partialRectangle;html=1;whiteSpace=wrap;connectable=0;strokeColor=inherit;overflow=hidden;fillColor=none;top=0;left=0;bottom=0;right=0;pointerEvents=1;" parent="SgJrQ4PgPZUKsZmOtUvy-324" vertex="1">
          <mxGeometry x="450" width="150" height="28" as="geometry">
            <mxRectangle width="150" height="28" as="alternateBounds" />
          </mxGeometry>
        </mxCell>
        <mxCell id="SgJrQ4PgPZUKsZmOtUvy-329" value="" style="shape=partialRectangle;html=1;whiteSpace=wrap;connectable=0;strokeColor=inherit;overflow=hidden;fillColor=none;top=0;left=0;bottom=0;right=0;pointerEvents=1;" parent="SgJrQ4PgPZUKsZmOtUvy-324" vertex="1">
          <mxGeometry x="600" width="150" height="28" as="geometry">
            <mxRectangle width="150" height="28" as="alternateBounds" />
          </mxGeometry>
        </mxCell>
        <mxCell id="SgJrQ4PgPZUKsZmOtUvy-330" value="" style="shape=partialRectangle;html=1;whiteSpace=wrap;connectable=0;strokeColor=inherit;overflow=hidden;fillColor=none;top=0;left=0;bottom=0;right=0;pointerEvents=1;" parent="SgJrQ4PgPZUKsZmOtUvy-324" vertex="1">
          <mxGeometry x="750" width="150" height="28" as="geometry">
            <mxRectangle width="150" height="28" as="alternateBounds" />
          </mxGeometry>
        </mxCell>
        <mxCell id="SgJrQ4PgPZUKsZmOtUvy-331" value="" style="shape=partialRectangle;html=1;whiteSpace=wrap;connectable=0;strokeColor=inherit;overflow=hidden;fillColor=none;top=0;left=0;bottom=0;right=0;pointerEvents=1;" parent="SgJrQ4PgPZUKsZmOtUvy-324" vertex="1">
          <mxGeometry x="900" width="150" height="28" as="geometry">
            <mxRectangle width="150" height="28" as="alternateBounds" />
          </mxGeometry>
        </mxCell>
        <mxCell id="SgJrQ4PgPZUKsZmOtUvy-332" value="" style="shape=tableRow;horizontal=0;startSize=0;swimlaneHead=0;swimlaneBody=0;strokeColor=inherit;top=0;left=0;bottom=0;right=0;collapsible=0;dropTarget=0;fillColor=none;points=[[0,0.5],[1,0.5]];portConstraint=eastwest;" parent="SgJrQ4PgPZUKsZmOtUvy-291" vertex="1">
          <mxGeometry y="140" width="1050" height="28" as="geometry" />
        </mxCell>
        <mxCell id="SgJrQ4PgPZUKsZmOtUvy-333" value="" style="shape=partialRectangle;html=1;whiteSpace=wrap;connectable=0;strokeColor=inherit;overflow=hidden;fillColor=none;top=0;left=0;bottom=0;right=0;pointerEvents=1;" parent="SgJrQ4PgPZUKsZmOtUvy-332" vertex="1">
          <mxGeometry width="150" height="28" as="geometry">
            <mxRectangle width="150" height="28" as="alternateBounds" />
          </mxGeometry>
        </mxCell>
        <mxCell id="SgJrQ4PgPZUKsZmOtUvy-334" value="" style="shape=partialRectangle;html=1;whiteSpace=wrap;connectable=0;strokeColor=inherit;overflow=hidden;fillColor=none;top=0;left=0;bottom=0;right=0;pointerEvents=1;" parent="SgJrQ4PgPZUKsZmOtUvy-332" vertex="1">
          <mxGeometry x="150" width="150" height="28" as="geometry">
            <mxRectangle width="150" height="28" as="alternateBounds" />
          </mxGeometry>
        </mxCell>
        <mxCell id="SgJrQ4PgPZUKsZmOtUvy-335" value="" style="shape=partialRectangle;html=1;whiteSpace=wrap;connectable=0;strokeColor=inherit;overflow=hidden;fillColor=none;top=0;left=0;bottom=0;right=0;pointerEvents=1;" parent="SgJrQ4PgPZUKsZmOtUvy-332" vertex="1">
          <mxGeometry x="300" width="150" height="28" as="geometry">
            <mxRectangle width="150" height="28" as="alternateBounds" />
          </mxGeometry>
        </mxCell>
        <mxCell id="SgJrQ4PgPZUKsZmOtUvy-336" value="" style="shape=partialRectangle;html=1;whiteSpace=wrap;connectable=0;strokeColor=inherit;overflow=hidden;fillColor=none;top=0;left=0;bottom=0;right=0;pointerEvents=1;" parent="SgJrQ4PgPZUKsZmOtUvy-332" vertex="1">
          <mxGeometry x="450" width="150" height="28" as="geometry">
            <mxRectangle width="150" height="28" as="alternateBounds" />
          </mxGeometry>
        </mxCell>
        <mxCell id="SgJrQ4PgPZUKsZmOtUvy-337" value="" style="shape=partialRectangle;html=1;whiteSpace=wrap;connectable=0;strokeColor=inherit;overflow=hidden;fillColor=none;top=0;left=0;bottom=0;right=0;pointerEvents=1;" parent="SgJrQ4PgPZUKsZmOtUvy-332" vertex="1">
          <mxGeometry x="600" width="150" height="28" as="geometry">
            <mxRectangle width="150" height="28" as="alternateBounds" />
          </mxGeometry>
        </mxCell>
        <mxCell id="SgJrQ4PgPZUKsZmOtUvy-338" value="" style="shape=partialRectangle;html=1;whiteSpace=wrap;connectable=0;strokeColor=inherit;overflow=hidden;fillColor=none;top=0;left=0;bottom=0;right=0;pointerEvents=1;" parent="SgJrQ4PgPZUKsZmOtUvy-332" vertex="1">
          <mxGeometry x="750" width="150" height="28" as="geometry">
            <mxRectangle width="150" height="28" as="alternateBounds" />
          </mxGeometry>
        </mxCell>
        <mxCell id="SgJrQ4PgPZUKsZmOtUvy-339" value="" style="shape=partialRectangle;html=1;whiteSpace=wrap;connectable=0;strokeColor=inherit;overflow=hidden;fillColor=none;top=0;left=0;bottom=0;right=0;pointerEvents=1;" parent="SgJrQ4PgPZUKsZmOtUvy-332" vertex="1">
          <mxGeometry x="900" width="150" height="28" as="geometry">
            <mxRectangle width="150" height="28" as="alternateBounds" />
          </mxGeometry>
        </mxCell>
        <mxCell id="SgJrQ4PgPZUKsZmOtUvy-340" value="Modifica" style="strokeWidth=1;shadow=0;dashed=0;align=center;html=1;shape=mxgraph.mockup.buttons.button;strokeColor=#666666;fontColor=#ffffff;mainText=;buttonStyle=round;fontSize=17;fontStyle=1;fillColor=#008cff;whiteSpace=wrap;" parent="SgJrQ4PgPZUKsZmOtUvy-351" vertex="1">
          <mxGeometry x="752" y="33.6231884057971" width="145" height="17.51207729468599" as="geometry" />
        </mxCell>
        <mxCell id="SgJrQ4PgPZUKsZmOtUvy-341" value="Elimina" style="strokeWidth=1;shadow=0;dashed=0;align=center;html=1;shape=mxgraph.mockup.buttons.button;strokeColor=#666666;fontColor=#ffffff;mainText=;buttonStyle=round;fontSize=17;fontStyle=1;fillColor=#008cff;whiteSpace=wrap;" parent="SgJrQ4PgPZUKsZmOtUvy-351" vertex="1">
          <mxGeometry x="902" y="33.6231884057971" width="145" height="17.51207729468599" as="geometry" />
        </mxCell>
        <mxCell id="SgJrQ4PgPZUKsZmOtUvy-342" value="Modifica" style="strokeWidth=1;shadow=0;dashed=0;align=center;html=1;shape=mxgraph.mockup.buttons.button;strokeColor=#666666;fontColor=#ffffff;mainText=;buttonStyle=round;fontSize=17;fontStyle=1;fillColor=#008cff;whiteSpace=wrap;" parent="SgJrQ4PgPZUKsZmOtUvy-351" vertex="1">
          <mxGeometry x="752" y="60.94202898550725" width="145" height="17.51207729468599" as="geometry" />
        </mxCell>
        <mxCell id="SgJrQ4PgPZUKsZmOtUvy-343" value="Elimina" style="strokeWidth=1;shadow=0;dashed=0;align=center;html=1;shape=mxgraph.mockup.buttons.button;strokeColor=#666666;fontColor=#ffffff;mainText=;buttonStyle=round;fontSize=17;fontStyle=1;fillColor=#008cff;whiteSpace=wrap;" parent="SgJrQ4PgPZUKsZmOtUvy-351" vertex="1">
          <mxGeometry x="902" y="60.94202898550725" width="145" height="17.51207729468599" as="geometry" />
        </mxCell>
        <mxCell id="SgJrQ4PgPZUKsZmOtUvy-344" value="Modifica" style="strokeWidth=1;shadow=0;dashed=0;align=center;html=1;shape=mxgraph.mockup.buttons.button;strokeColor=#666666;fontColor=#ffffff;mainText=;buttonStyle=round;fontSize=17;fontStyle=1;fillColor=#008cff;whiteSpace=wrap;" parent="SgJrQ4PgPZUKsZmOtUvy-351" vertex="1">
          <mxGeometry x="752" y="89.66183574879227" width="145" height="17.51207729468599" as="geometry" />
        </mxCell>
        <mxCell id="SgJrQ4PgPZUKsZmOtUvy-345" value="Elimina" style="strokeWidth=1;shadow=0;dashed=0;align=center;html=1;shape=mxgraph.mockup.buttons.button;strokeColor=#666666;fontColor=#ffffff;mainText=;buttonStyle=round;fontSize=17;fontStyle=1;fillColor=#008cff;whiteSpace=wrap;" parent="SgJrQ4PgPZUKsZmOtUvy-351" vertex="1">
          <mxGeometry x="902" y="89.66183574879227" width="145" height="17.51207729468599" as="geometry" />
        </mxCell>
        <mxCell id="SgJrQ4PgPZUKsZmOtUvy-346" value="Modifica" style="strokeWidth=1;shadow=0;dashed=0;align=center;html=1;shape=mxgraph.mockup.buttons.button;strokeColor=#666666;fontColor=#ffffff;mainText=;buttonStyle=round;fontSize=17;fontStyle=1;fillColor=#008cff;whiteSpace=wrap;" parent="SgJrQ4PgPZUKsZmOtUvy-351" vertex="1">
          <mxGeometry x="752" y="116.98067632850241" width="145" height="17.51207729468599" as="geometry" />
        </mxCell>
        <mxCell id="SgJrQ4PgPZUKsZmOtUvy-347" value="Elimina" style="strokeWidth=1;shadow=0;dashed=0;align=center;html=1;shape=mxgraph.mockup.buttons.button;strokeColor=#666666;fontColor=#ffffff;mainText=;buttonStyle=round;fontSize=17;fontStyle=1;fillColor=#008cff;whiteSpace=wrap;" parent="SgJrQ4PgPZUKsZmOtUvy-351" vertex="1">
          <mxGeometry x="902" y="116.98067632850241" width="145" height="17.51207729468599" as="geometry" />
        </mxCell>
        <mxCell id="SgJrQ4PgPZUKsZmOtUvy-348" value="Modifica" style="strokeWidth=1;shadow=0;dashed=0;align=center;html=1;shape=mxgraph.mockup.buttons.button;strokeColor=#666666;fontColor=#ffffff;mainText=;buttonStyle=round;fontSize=17;fontStyle=1;fillColor=#008cff;whiteSpace=wrap;" parent="SgJrQ4PgPZUKsZmOtUvy-351" vertex="1">
          <mxGeometry x="752" y="145.70048309178745" width="145" height="17.51207729468599" as="geometry" />
        </mxCell>
        <mxCell id="SgJrQ4PgPZUKsZmOtUvy-349" value="Elimina" style="strokeWidth=1;shadow=0;dashed=0;align=center;html=1;shape=mxgraph.mockup.buttons.button;strokeColor=#666666;fontColor=#ffffff;mainText=;buttonStyle=round;fontSize=17;fontStyle=1;fillColor=#008cff;whiteSpace=wrap;" parent="SgJrQ4PgPZUKsZmOtUvy-351" vertex="1">
          <mxGeometry x="902" y="145.70048309178745" width="145" height="17.51207729468599" as="geometry" />
        </mxCell>
        <mxCell id="SgJrQ4PgPZUKsZmOtUvy-353" value="&lt;b&gt;&lt;font style=&quot;font-size: 18px;&quot;&gt;Lista Dipendenti&lt;/font&gt;&lt;/b&gt;" style="text;html=1;align=center;verticalAlign=middle;resizable=0;points=[];autosize=1;strokeColor=none;fillColor=none;" parent="SgJrQ4PgPZUKsZmOtUvy-355" vertex="1">
          <mxGeometry x="25" y="19.613526570048307" width="158" height="34" as="geometry" />
        </mxCell>
        <mxCell id="SgJrQ4PgPZUKsZmOtUvy-354" value="" style="verticalLabelPosition=bottom;shadow=0;dashed=0;align=center;html=1;verticalAlign=top;strokeWidth=1;shape=mxgraph.mockup.navigation.scrollBar;strokeColor=#999999;barPos=20;fillColor2=#99ddff;strokeColor2=none;direction=north;" parent="SgJrQ4PgPZUKsZmOtUvy-355" vertex="1">
          <mxGeometry x="1111" y="65.14492753623189" width="20" height="170.91787439613526" as="geometry" />
        </mxCell>
        <mxCell id="SgJrQ4PgPZUKsZmOtUvy-290" value="Aggiugni Dipendente" style="strokeWidth=1;shadow=0;dashed=0;align=center;html=1;shape=mxgraph.mockup.buttons.button;strokeColor=#666666;fontColor=#ffffff;mainText=;buttonStyle=round;fontSize=17;fontStyle=1;fillColor=#008cff;whiteSpace=wrap;" parent="SgJrQ4PgPZUKsZmOtUvy-226" vertex="1">
          <mxGeometry x="658" y="673" width="256" height="25" as="geometry" />
        </mxCell>
      </root>
    </mxGraphModel>
  </diagram>
</mxfile>
